<svg width="25" height="21" viewBox="0 0 25 21" fill="none" xmlns="http://www.w3.org/2000/svg">
<g filter="url(#filter0_d)">
<path d="M11.7891 1.64062C11.0547 2.0625 10.4609 2.42969 10.0078 2.74219C9.55469 3.03906 9.09375 3.4375 8.625 3.9375C8.1875 4.40625 7.85156 4.89844 7.61719 5.41406C7.38281 5.92969 7.21875 6.59375 7.125 7.40625H8.25C9.21875 7.40625 9.97656 7.64844 10.5234 8.13281C11.0859 8.60156 11.3672 9.29688 11.3672 10.2188C11.3672 10.875 11.1172 11.4922 10.6172 12.0703C10.1328 12.6328 9.46094 12.9141 8.60156 12.9141C7.25781 12.9141 6.29688 12.4766 5.71875 11.6016C5.14062 10.7109 4.85156 9.54687 4.85156 8.10938C4.85156 7.09375 5.07031 6.17187 5.50781 5.34375C5.94531 4.5 6.47656 3.75 7.10156 3.09375C7.74219 2.42187 8.42188 1.85156 9.14062 1.38281C9.85938 0.914062 10.4609 0.53125 10.9453 0.234375L11.7891 1.64062ZM20.4609 1.64062C19.7266 2.0625 19.1328 2.42969 18.6797 2.74219C18.2266 3.03906 17.7656 3.4375 17.2969 3.9375C16.8438 4.42188 16.5 4.92188 16.2656 5.4375C16.0469 5.9375 15.8906 6.59375 15.7969 7.40625H16.9219C17.8906 7.40625 18.6484 7.64844 19.1953 8.13281C19.7578 8.60156 20.0391 9.29688 20.0391 10.2188C20.0391 10.875 19.7891 11.4922 19.2891 12.0703C18.8047 12.6328 18.1328 12.9141 17.2734 12.9141C15.9297 12.9141 14.9688 12.4766 14.3906 11.6016C13.8125 10.7109 13.5234 9.54687 13.5234 8.10938C13.5234 7.09375 13.7422 6.17187 14.1797 5.34375C14.6172 4.5 15.1484 3.75 15.7734 3.09375C16.4141 2.42187 17.0938 1.85156 17.8125 1.38281C18.5312 0.914062 19.1328 0.53125 19.6172 0.234375L20.4609 1.64062Z" fill="#69B99D"/>
</g>
<defs>
<filter id="filter0_d" x="0.851562" y="0.234375" width="23.6094" height="20.6797" filterUnits="userSpaceOnUse" color-interpolation-filters="sRGB">
<feFlood flood-opacity="0" result="BackgroundImageFix"/>
<feColorMatrix in="SourceAlpha" type="matrix" values="0 0 0 0 0 0 0 0 0 0 0 0 0 0 0 0 0 0 127 0" result="hardAlpha"/>
<feOffset dy="4"/>
<feGaussianBlur stdDeviation="2"/>
<feComposite in2="hardAlpha" operator="out"/>
<feColorMatrix type="matrix" values="0 0 0 0 0 0 0 0 0 0 0 0 0 0 0 0 0 0 0.25 0"/>
<feBlend mode="normal" in2="BackgroundImageFix" result="effect1_dropShadow"/>
<feBlend mode="normal" in="SourceGraphic" in2="effect1_dropShadow" result="shape"/>
</filter>
</defs>
</svg>
